{
	"asset":{
		"generator":"Khronos glTF Blender I/O v5.2.40",
		"version":"2.0"
	},
	"scene":0,
	"scenes":[
		{
			"name":"Scene",
			"nodes":[
				0,
				1,
				2,
				3
			]
		}
	],
	"nodes":[
		{
			"mesh":0,
			"name":"shrub_02_a",
			"rotation":[
				0.12589913606643677,
				-0.6947681903839111,
				0.006097284145653248,
				0.7081027030944824
			]
		},
		{
			"mesh":1,
			"name":"shrub_02_b",
			"rotation":[
				0.08358939737081528,
				-0.7466307878494263,
				0.26227882504463196,
				0.6056113839149475
			],
			"translation":[
				2.5,
				0,
				0
			]
		},
		{
			"mesh":2,
			"name":"shrub_02_c",
			"rotation":[
				0.12648986279964447,
				-0.7129753232002258,
				0.39439618587493896,
				0.5657898783683777
			],
			"translation":[
				5,
				0,
				0
			]
		},
		{
			"mesh":3,
			"name":"shrub_02_d",
			"rotation":[
				0.04737728461623192,
				-0.7383221983909607,
				-0.30041447281837463,
				0.60198575258255
			],
			"translation":[
				7.5,
				0,
				0
			]
		}
	],
	"materials":[
		{
			"alphaMode":"MASK",
			"doubleSided":true,
			"name":"shrub_02",
			"normalTexture":{
				"index":0
			},
			"pbrMetallicRoughness":{
				"baseColorTexture":{
					"index":1
				},
				"metallicFactor":0,
				"metallicRoughnessTexture":{
					"index":2
				}
			}
		}
	],
	"meshes":[
		{
			"name":"Plane.002",
			"primitives":[
				{
					"attributes":{
						"POSITION":0,
						"NORMAL":1,
						"TEXCOORD_0":2
					},
					"indices":3,
					"material":0
				}
			]
		},
		{
			"name":"Plane.005",
			"primitives":[
				{
					"attributes":{
						"POSITION":4,
						"NORMAL":5,
						"TEXCOORD_0":6
					},
					"indices":7,
					"material":0
				}
			]
		},
		{
			"name":"Plane.009",
			"primitives":[
				{
					"attributes":{
						"POSITION":8,
						"NORMAL":9,
						"TEXCOORD_0":10
					},
					"indices":11,
					"material":0
				}
			]
		},
		{
			"name":"Plane.013",
			"primitives":[
				{
					"attributes":{
						"POSITION":12,
						"NORMAL":13,
						"TEXCOORD_0":14
					},
					"indices":15,
					"material":0
				}
			]
		}
	],
	"textures":[
		{
			"sampler":0,
			"source":0
		},
		{
			"sampler":0,
			"source":1
		},
		{
			"sampler":0,
			"source":2
		}
	],
	"images":[
		{
			"mimeType":"image/jpeg",
			"name":"shrub_02_nor_gl_2k",
			"uri":"shrub_02_nor_gl_2k.jpg"
		},
		{
			"mimeType":"image/png",
			"name":"shrub_02_diff_2k",
			"uri":"shrub_02_diff_2k.png"
		},
		{
			"mimeType":"image/jpeg",
			"name":"shrub_02_arm_2k",
			"uri":"shrub_02_arm_2k.jpg"
		}
	],
	"accessors":[
		{
			"bufferView":0,
			"componentType":5126,
			"count":35592,
			"max":[
				0.6791647672653198,
				1.6822421550750732,
				0.4686587452888489
			],
			"min":[
				-0.9439988136291504,
				-0.033884622156620026,
				-0.8632659912109375
			],
			"type":"VEC3"
		},
		{
			"bufferView":1,
			"componentType":5126,
			"count":35592,
			"type":"VEC3"
		},
		{
			"bufferView":2,
			"componentType":5126,
			"count":35592,
			"type":"VEC2"
		},
		{
			"bufferView":3,
			"componentType":5123,
			"count":122832,
			"type":"SCALAR"
		},
		{
			"bufferView":4,
			"componentType":5126,
			"count":39482,
			"max":[
				1.0927224159240723,
				1.3920443058013916,
				0.3416951596736908
			],
			"min":[
				-0.8755838871002197,
				-0.11572111397981644,
				-1.1006081104278564
			],
			"type":"VEC3"
		},
		{
			"bufferView":5,
			"componentType":5126,
			"count":39482,
			"type":"VEC3"
		},
		{
			"bufferView":6,
			"componentType":5126,
			"count":39482,
			"type":"VEC2"
		},
		{
			"bufferView":7,
			"componentType":5123,
			"count":135918,
			"type":"SCALAR"
		},
		{
			"bufferView":8,
			"componentType":5126,
			"count":37053,
			"max":[
				1.287977695465088,
				1.2305978536605835,
				0.24125540256500244
			],
			"min":[
				-0.8910231590270996,
				-0.2947101294994354,
				-1.2264512777328491
			],
			"type":"VEC3"
		},
		{
			"bufferView":9,
			"componentType":5126,
			"count":37053,
			"type":"VEC3"
		},
		{
			"bufferView":10,
			"componentType":5126,
			"count":37053,
			"type":"VEC2"
		},
		{
			"bufferView":11,
			"componentType":5123,
			"count":127794,
			"type":"SCALAR"
		},
		{
			"bufferView":12,
			"componentType":5126,
			"count":39275,
			"max":[
				0.600039541721344,
				1.2967225313186646,
				0.673064112663269
			],
			"min":[
				-1.051486849784851,
				-0.38188016414642334,
				-0.5391830205917358
			],
			"type":"VEC3"
		},
		{
			"bufferView":13,
			"componentType":5126,
			"count":39275,
			"type":"VEC3"
		},
		{
			"bufferView":14,
			"componentType":5126,
			"count":39275,
			"type":"VEC2"
		},
		{
			"bufferView":15,
			"componentType":5123,
			"count":134964,
			"type":"SCALAR"
		}
	],
	"bufferViews":[
		{
			"buffer":0,
			"byteLength":427104,
			"byteOffset":0,
			"target":34962
		},
		{
			"buffer":0,
			"byteLength":427104,
			"byteOffset":427104,
			"target":34962
		},
		{
			"buffer":0,
			"byteLength":284736,
			"byteOffset":854208,
			"target":34962
		},
		{
			"buffer":0,
			"byteLength":245664,
			"byteOffset":1138944,
			"target":34963
		},
		{
			"buffer":0,
			"byteLength":473784,
			"byteOffset":1384608,
			"target":34962
		},
		{
			"buffer":0,
			"byteLength":473784,
			"byteOffset":1858392,
			"target":34962
		},
		{
			"buffer":0,
			"byteLength":315856,
			"byteOffset":2332176,
			"target":34962
		},
		{
			"buffer":0,
			"byteLength":271836,
			"byteOffset":2648032,
			"target":34963
		},
		{
			"buffer":0,
			"byteLength":444636,
			"byteOffset":2919868,
			"target":34962
		},
		{
			"buffer":0,
			"byteLength":444636,
			"byteOffset":3364504,
			"target":34962
		},
		{
			"buffer":0,
			"byteLength":296424,
			"byteOffset":3809140,
			"target":34962
		},
		{
			"buffer":0,
			"byteLength":255588,
			"byteOffset":4105564,
			"target":34963
		},
		{
			"buffer":0,
			"byteLength":471300,
			"byteOffset":4361152,
			"target":34962
		},
		{
			"buffer":0,
			"byteLength":471300,
			"byteOffset":4832452,
			"target":34962
		},
		{
			"buffer":0,
			"byteLength":314200,
			"byteOffset":5303752,
			"target":34962
		},
		{
			"buffer":0,
			"byteLength":269928,
			"byteOffset":5617952,
			"target":34963
		}
	],
	"samplers":[
		{
			"magFilter":9729,
			"minFilter":9987
		}
	],
	"buffers":[
		{
			"byteLength":5887880,
			"uri":"shrub_02.bin"
		}
	]
}
