{
	"asset":{
		"generator":"Khronos glTF Blender I/O v5.2.40",
		"version":"2.0"
	},
	"scene":0,
	"scenes":[
		{
			"name":"Scene",
			"nodes":[
				0,
				1,
				2,
				3
			]
		}
	],
	"nodes":[
		{
			"mesh":0,
			"name":"shrub_03_a"
		},
		{
			"mesh":1,
			"name":"shrub_03_b",
			"translation":[
				1.5,
				0,
				0
			]
		},
		{
			"mesh":2,
			"name":"shrub_03_c",
			"translation":[
				3,
				0,
				0
			]
		},
		{
			"mesh":3,
			"name":"shrub_03_d",
			"translation":[
				4.5,
				0,
				0
			]
		}
	],
	"materials":[
		{
			"alphaMode":"MASK",
			"doubleSided":true,
			"name":"shrub_03",
			"normalTexture":{
				"index":0
			},
			"pbrMetallicRoughness":{
				"baseColorTexture":{
					"index":1
				},
				"metallicFactor":0,
				"metallicRoughnessTexture":{
					"index":2
				}
			}
		}
	],
	"meshes":[
		{
			"name":"Plane.002",
			"primitives":[
				{
					"attributes":{
						"POSITION":0,
						"NORMAL":1,
						"TEXCOORD_0":2
					},
					"indices":3,
					"material":0
				}
			]
		},
		{
			"name":"Plane.005",
			"primitives":[
				{
					"attributes":{
						"POSITION":4,
						"NORMAL":5,
						"TEXCOORD_0":6
					},
					"indices":7,
					"material":0
				}
			]
		},
		{
			"name":"Plane.008",
			"primitives":[
				{
					"attributes":{
						"POSITION":8,
						"NORMAL":9,
						"TEXCOORD_0":10
					},
					"indices":11,
					"material":0
				}
			]
		},
		{
			"name":"Plane.011",
			"primitives":[
				{
					"attributes":{
						"POSITION":12,
						"NORMAL":13,
						"TEXCOORD_0":14
					},
					"indices":15,
					"material":0
				}
			]
		}
	],
	"textures":[
		{
			"sampler":0,
			"source":0
		},
		{
			"sampler":0,
			"source":1
		},
		{
			"sampler":0,
			"source":2
		}
	],
	"images":[
		{
			"mimeType":"image/jpeg",
			"name":"shrub_03_nor_gl_2k",
			"uri":"shrub_03_nor_gl_2k.jpg"
		},
		{
			"mimeType":"image/png",
			"name":"shrub_03_diff_2k",
			"uri":"shrub_03_diff_2k.png"
		},
		{
			"mimeType":"image/jpeg",
			"name":"shrub_03_arm_2k",
			"uri":"shrub_03_arm_2k.jpg"
		}
	],
	"accessors":[
		{
			"bufferView":0,
			"componentType":5126,
			"count":30848,
			"max":[
				0.2686912715435028,
				0.42067626118659973,
				0.17700016498565674
			],
			"min":[
				-0.20464307069778442,
				-0.006934520322829485,
				-0.15890385210514069
			],
			"type":"VEC3"
		},
		{
			"bufferView":1,
			"componentType":5126,
			"count":30848,
			"type":"VEC3"
		},
		{
			"bufferView":2,
			"componentType":5126,
			"count":30848,
			"type":"VEC2"
		},
		{
			"bufferView":3,
			"componentType":5123,
			"count":97770,
			"type":"SCALAR"
		},
		{
			"bufferView":4,
			"componentType":5126,
			"count":30372,
			"max":[
				0.27612626552581787,
				0.3864888548851013,
				0.16607120633125305
			],
			"min":[
				-0.1964702010154724,
				-0.006776837632060051,
				-0.1782314032316208
			],
			"type":"VEC3"
		},
		{
			"bufferView":5,
			"componentType":5126,
			"count":30372,
			"type":"VEC3"
		},
		{
			"bufferView":6,
			"componentType":5126,
			"count":30372,
			"type":"VEC2"
		},
		{
			"bufferView":7,
			"componentType":5123,
			"count":96306,
			"type":"SCALAR"
		},
		{
			"bufferView":8,
			"componentType":5126,
			"count":27902,
			"max":[
				0.20861786603927612,
				0.4093124568462372,
				0.15015071630477905
			],
			"min":[
				-0.15196622908115387,
				-0.008711068890988827,
				-0.16022521257400513
			],
			"type":"VEC3"
		},
		{
			"bufferView":9,
			"componentType":5126,
			"count":27902,
			"type":"VEC3"
		},
		{
			"bufferView":10,
			"componentType":5126,
			"count":27902,
			"type":"VEC2"
		},
		{
			"bufferView":11,
			"componentType":5123,
			"count":88404,
			"type":"SCALAR"
		},
		{
			"bufferView":12,
			"componentType":5126,
			"count":30855,
			"max":[
				0.2379392832517624,
				0.36274033784866333,
				0.15960822999477386
			],
			"min":[
				-0.17357154190540314,
				-0.006605010014027357,
				-0.14053648710250854
			],
			"type":"VEC3"
		},
		{
			"bufferView":13,
			"componentType":5126,
			"count":30855,
			"type":"VEC3"
		},
		{
			"bufferView":14,
			"componentType":5126,
			"count":30855,
			"type":"VEC2"
		},
		{
			"bufferView":15,
			"componentType":5123,
			"count":97770,
			"type":"SCALAR"
		}
	],
	"bufferViews":[
		{
			"buffer":0,
			"byteLength":370176,
			"byteOffset":0,
			"target":34962
		},
		{
			"buffer":0,
			"byteLength":370176,
			"byteOffset":370176,
			"target":34962
		},
		{
			"buffer":0,
			"byteLength":246784,
			"byteOffset":740352,
			"target":34962
		},
		{
			"buffer":0,
			"byteLength":195540,
			"byteOffset":987136,
			"target":34963
		},
		{
			"buffer":0,
			"byteLength":364464,
			"byteOffset":1182676,
			"target":34962
		},
		{
			"buffer":0,
			"byteLength":364464,
			"byteOffset":1547140,
			"target":34962
		},
		{
			"buffer":0,
			"byteLength":242976,
			"byteOffset":1911604,
			"target":34962
		},
		{
			"buffer":0,
			"byteLength":192612,
			"byteOffset":2154580,
			"target":34963
		},
		{
			"buffer":0,
			"byteLength":334824,
			"byteOffset":2347192,
			"target":34962
		},
		{
			"buffer":0,
			"byteLength":334824,
			"byteOffset":2682016,
			"target":34962
		},
		{
			"buffer":0,
			"byteLength":223216,
			"byteOffset":3016840,
			"target":34962
		},
		{
			"buffer":0,
			"byteLength":176808,
			"byteOffset":3240056,
			"target":34963
		},
		{
			"buffer":0,
			"byteLength":370260,
			"byteOffset":3416864,
			"target":34962
		},
		{
			"buffer":0,
			"byteLength":370260,
			"byteOffset":3787124,
			"target":34962
		},
		{
			"buffer":0,
			"byteLength":246840,
			"byteOffset":4157384,
			"target":34962
		},
		{
			"buffer":0,
			"byteLength":195540,
			"byteOffset":4404224,
			"target":34963
		}
	],
	"samplers":[
		{
			"magFilter":9729,
			"minFilter":9987
		}
	],
	"buffers":[
		{
			"byteLength":4599764,
			"uri":"shrub_03.bin"
		}
	]
}
