{
  "asset": {
    "generator": "Khronos glTF Blender I/O v4.0.44",
    "version": "2.0"
  },
  "scene": 0,
  "scenes": [
    {
      "name": "Scene",
      "nodes": [
        0
      ]
    }
  ],
  "nodes": [
    {
      "mesh": 0,
      "name": "shrub_01_a",
      "translation": [
        0.6002307534217834,
        0,
        0
      ]
    }
  ],
  "materials": [
    {
      "alphaCutoff": 0.5,
      "alphaMode": "MASK",
      "doubleSided": true,
      "name": "shrub_01",
      "normalTexture": {
        "index": 0
      },
      "pbrMetallicRoughness": {
        "baseColorTexture": {
          "index": 1
        },
        "metallicFactor": 0,
        "metallicRoughnessTexture": {
          "index": 2
        }
      }
    }
  ],
  "meshes": [
    {
      "name": "Circle.010",
      "primitives": [
        {
          "attributes": {
            "POSITION": 0,
            "NORMAL": 1,
            "TEXCOORD_0": 2
          },
          "indices": 3,
          "material": 0
        }
      ]
    }
  ],
  "textures": [
    {
      "sampler": 0,
      "source": 0
    },
    {
      "sampler": 0,
      "source": 1
    },
    {
      "sampler": 0,
      "source": 2
    }
  ],
  "images": [
    {
      "mimeType": "image/jpeg",
      "name": "shrub_01_nor_gl",
      "uri": "textures/shrub_01_nor_gl_2k.jpg"
    },
    {
      "mimeType": "image/jpeg",
      "name": "shrub_01_diff",
      "uri": "textures/shrub_01_diff_2k.jpg"
    },
    {
      "mimeType": "image/jpeg",
      "name": "shrub_01_rough",
      "uri": "textures/shrub_01_arm_2k.jpg"
    }
  ],
  "accessors": [
    {
      "bufferView": 0,
      "componentType": 5126,
      "count": 10483,
      "max": [
        0.13161079585552216,
        0.38391873240470886,
        0.10208358615636826
      ],
      "min": [
        -2.454815626144409,
        -0.008608093485236168,
        -0.11306978762149811
      ],
      "type": "VEC3"
    },
    {
      "bufferView": 1,
      "componentType": 5126,
      "count": 10483,
      "type": "VEC3"
    },
    {
      "bufferView": 2,
      "componentType": 5126,
      "count": 10483,
      "type": "VEC2"
    },
    {
      "bufferView": 3,
      "componentType": 5123,
      "count": 52896,
      "type": "SCALAR"
    }
  ],
  "bufferViews": [
    {
      "buffer": 0,
      "byteOffset": 0,
      "byteLength": 125796,
      "target": 34962
    },
    {
      "buffer": 0,
      "byteOffset": 125796,
      "byteLength": 125796,
      "target": 34962
    },
    {
      "buffer": 0,
      "byteOffset": 251592,
      "byteLength": 83864,
      "target": 34962
    },
    {
      "buffer": 0,
      "byteOffset": 335456,
      "byteLength": 105792,
      "target": 34963
    }
  ],
  "samplers": [
    {
      "magFilter": 9729,
      "minFilter": 9987
    }
  ],
  "buffers": [
    {
      "byteLength": 441248,
      "uri": "shrub_01.bin"
    }
  ]
}